<?xml version="1.0" encoding="utf-8"?>
<!-- Generator: Adobe Illustrator 26.5.0, SVG Export Plug-In . SVG Version: 6.00 Build 0)  -->
<svg version="1.1" id="レイヤー_1" xmlns="http://www.w3.org/2000/svg" xmlns:xlink="http://www.w3.org/1999/xlink" x="0px"
	 y="0px" viewBox="0 0 1920 1080" style="enable-background:new 0 0 1920 1080;" xml:space="preserve">
<style type="text/css">
	.st0{fill:none;stroke:#BFBFBF;stroke-width:0.8504;stroke-miterlimit:10;}
	.st1{fill:none;stroke:#BFBFBF;stroke-width:0.5669;stroke-miterlimit:10;}
	.st2{fill:none;stroke:#BFBFBF;stroke-width:0.2835;stroke-miterlimit:10;}
	.st3{fill:#BFBFBF;}
	.st4{font-family:'Times-Roman';}
	.st5{font-size:14.1732px;}
</style>
<g>
	<rect x="563.43" y="317.43" class="st0" width="792" height="445.5"/>
	<path class="st0" d="M968.37,540.18c0-4.97-4.03-9-9-9s-9,4.03-9,9c0,4.97,4.03,9,9,9S968.37,545.14,968.37,540.18"/>
	<line class="st1" x1="959.43" y1="762.93" x2="959.43" y2="317.43"/>
	<path class="st2" d="M959.43,762.93v-445.5 M923.43,762.93v-445.5 M887.43,762.93v-445.5 M851.43,762.93v-445.5"/>
	<text transform="matrix(1 0 0 1 819.0815 473.3471)" class="st3 st4 st5">4</text>
	<text transform="matrix(1 0 0 1 819.0815 614.0892)" class="st3 st4 st5">4</text>
	<line class="st2" x1="815.43" y1="762.93" x2="815.43" y2="317.43"/>
	<text transform="matrix(1 0 0 1 783.0815 453.0971)" class="st3 st4 st5">5</text>
	<text transform="matrix(1 0 0 1 783.0815 634.3314)" class="st3 st4 st5">5</text>
	<line class="st2" x1="779.43" y1="762.93" x2="779.43" y2="317.43"/>
	<text transform="matrix(1 0 0 1 747.0815 432.8471)" class="st3 st4 st5">6</text>
	<text transform="matrix(1 0 0 1 747.0815 654.5892)" class="st3 st4 st5">6</text>
	<line class="st2" x1="743.43" y1="762.93" x2="743.43" y2="317.43"/>
	<text transform="matrix(1 0 0 1 711.0815 412.5971)" class="st3 st4 st5">7</text>
	<text transform="matrix(1 0 0 1 711.0815 674.8314)" class="st3 st4 st5">7</text>
	<line class="st2" x1="707.43" y1="762.93" x2="707.43" y2="317.43"/>
	<text transform="matrix(1 0 0 1 675.0815 392.3471)" class="st3 st4 st5">8</text>
	<text transform="matrix(1 0 0 1 675.0815 695.0892)" class="st3 st4 st5">8</text>
	<line class="st2" x1="671.43" y1="762.93" x2="671.43" y2="317.43"/>
	<text transform="matrix(1 0 0 1 639.0815 372.0971)" class="st3 st4 st5">9</text>
	<text transform="matrix(1 0 0 1 639.0815 715.3392)" class="st3 st4 st5">9</text>
	<line class="st2" x1="635.43" y1="762.93" x2="635.43" y2="317.43"/>
	<text transform="matrix(1 0 0 1 599.5424 351.8471)" class="st3 st4 st5">10</text>
	<text transform="matrix(1 0 0 1 599.5424 735.5814)" class="st3 st4 st5">10</text>
	<line class="st2" x1="599.43" y1="762.93" x2="599.43" y2="317.43"/>
	<text transform="matrix(1 0 0 1 563.5424 331.5971)" class="st3 st4 st5">11</text>
	<text transform="matrix(1 0 0 1 563.5424 755.8392)" class="st3 st4 st5">11</text>
	<path class="st2" d="M563.43,762.93v-445.5 M959.43,762.93v-445.5 M995.43,762.93v-445.5 M1031.43,762.93v-445.5 M1067.43,762.93
		v-445.5"/>
	<text transform="matrix(1 0 0 1 1092.683 473.3471)" class="st3 st4 st5">4</text>
	<text transform="matrix(1 0 0 1 1092.683 614.0892)" class="st3 st4 st5">4</text>
	<line class="st2" x1="1103.43" y1="762.93" x2="1103.43" y2="317.43"/>
	<text transform="matrix(1 0 0 1 1128.683 453.0971)" class="st3 st4 st5">5</text>
	<text transform="matrix(1 0 0 1 1128.683 634.3314)" class="st3 st4 st5">5</text>
	<line class="st2" x1="1139.43" y1="762.93" x2="1139.43" y2="317.43"/>
	<text transform="matrix(1 0 0 1 1164.683 432.8471)" class="st3 st4 st5">6</text>
	<text transform="matrix(1 0 0 1 1164.683 654.5892)" class="st3 st4 st5">6</text>
	<line class="st2" x1="1175.43" y1="762.93" x2="1175.43" y2="317.43"/>
	<text transform="matrix(1 0 0 1 1200.683 412.5971)" class="st3 st4 st5">7</text>
	<text transform="matrix(1 0 0 1 1200.683 674.8314)" class="st3 st4 st5">7</text>
	<line class="st2" x1="1211.43" y1="762.93" x2="1211.43" y2="317.43"/>
	<text transform="matrix(1 0 0 1 1236.683 392.3471)" class="st3 st4 st5">8</text>
	<text transform="matrix(1 0 0 1 1236.683 695.0892)" class="st3 st4 st5">8</text>
	<line class="st2" x1="1247.43" y1="762.93" x2="1247.43" y2="317.43"/>
	<text transform="matrix(1 0 0 1 1272.683 372.0971)" class="st3 st4 st5">9</text>
	<text transform="matrix(1 0 0 1 1272.683 715.3392)" class="st3 st4 st5">9</text>
	<line class="st2" x1="1283.43" y1="762.93" x2="1283.43" y2="317.43"/>
	<text transform="matrix(1 0 0 1 1305.1361 351.8471)" class="st3 st4 st5">10</text>
	<text transform="matrix(1 0 0 1 1305.1361 735.5814)" class="st3 st4 st5">10</text>
	<line class="st2" x1="1319.43" y1="762.93" x2="1319.43" y2="317.43"/>
	<text transform="matrix(1 0 0 1 1341.1361 331.5971)" class="st3 st4 st5">11</text>
	<text transform="matrix(1 0 0 1 1341.1361 755.8392)" class="st3 st4 st5">11</text>
	<line class="st2" x1="1355.43" y1="762.93" x2="1355.43" y2="317.43"/>
	<line class="st1" x1="563.43" y1="540.18" x2="1355.43" y2="540.18"/>
	<path class="st2" d="M563.43,540.18h792 M563.43,519.93h792 M563.43,499.68h792 M563.43,479.43h792 M563.43,459.18h792
		 M563.43,438.93h792 M563.43,418.68h792 M563.43,398.43h792 M563.43,378.18h792 M563.43,357.93h792 M563.43,337.68h792
		 M563.43,317.43h792 M563.43,540.18h792 M563.43,560.43h792 M563.43,580.68h792 M563.43,600.93h792 M563.43,621.18h792
		 M563.43,641.43h792 M563.43,661.68h792 M563.43,681.93h792 M563.43,702.18h792 M563.43,722.43h792 M563.43,742.68h792
		 M563.43,762.93h792"/>
</g>
</svg>
