<?xml version="1.0" encoding="utf-8"?>
<!-- Generator: Adobe Illustrator 26.5.0, SVG Export Plug-In . SVG Version: 6.00 Build 0)  -->
<svg version="1.1" id="レイヤー_1" xmlns="http://www.w3.org/2000/svg" xmlns:xlink="http://www.w3.org/1999/xlink" x="0px"
	 y="0px" viewBox="0 0 1920 1080" style="enable-background:new 0 0 1920 1080;" xml:space="preserve">
<style type="text/css">
	.st0{fill:none;stroke:#BFBFBF;stroke-width:0.8504;stroke-miterlimit:10;}
	.st1{fill:none;stroke:#BFBFBF;stroke-width:0.5669;stroke-miterlimit:10;}
	.st2{fill:none;stroke:#BFBFBF;stroke-width:0.2835;stroke-miterlimit:10;}
	.st3{fill:#BFBFBF;}
	.st4{font-family:'Times-Roman';}
	.st5{font-size:14.1732px;}
</style>
<g>
	<rect x="455.43" y="257.43" class="st0" width="1008" height="567"/>
	<path class="st0" d="M968.49,540.93c0-4.97-4.03-9-9-9s-9,4.03-9,9c0,4.97,4.03,9,9,9S968.49,545.89,968.49,540.93"/>
	<line class="st1" x1="959.43" y1="824.43" x2="959.43" y2="257.43"/>
	<path class="st2" d="M959.43,824.43v-567 M923.43,824.43v-567 M887.43,824.43v-567 M851.43,824.43v-567"/>
	<text transform="matrix(1 0 0 1 819.0814 474.0971)" class="st3 st4 st5">4</text>
	<text transform="matrix(1 0 0 1 819.0814 614.8393)" class="st3 st4 st5">4</text>
	<line class="st2" x1="815.43" y1="824.43" x2="815.43" y2="257.43"/>
	<text transform="matrix(1 0 0 1 783.0814 453.8471)" class="st3 st4 st5">5</text>
	<text transform="matrix(1 0 0 1 783.0814 635.0815)" class="st3 st4 st5">5</text>
	<line class="st2" x1="779.43" y1="824.43" x2="779.43" y2="257.43"/>
	<text transform="matrix(1 0 0 1 747.0814 433.5971)" class="st3 st4 st5">6</text>
	<text transform="matrix(1 0 0 1 747.0814 655.3393)" class="st3 st4 st5">6</text>
	<line class="st2" x1="743.43" y1="824.43" x2="743.43" y2="257.43"/>
	<text transform="matrix(1 0 0 1 711.0814 413.3471)" class="st3 st4 st5">7</text>
	<text transform="matrix(1 0 0 1 711.0814 675.5815)" class="st3 st4 st5">7</text>
	<line class="st2" x1="707.43" y1="824.43" x2="707.43" y2="257.43"/>
	<text transform="matrix(1 0 0 1 675.0814 393.0971)" class="st3 st4 st5">8</text>
	<text transform="matrix(1 0 0 1 675.0814 695.8393)" class="st3 st4 st5">8</text>
	<line class="st2" x1="671.43" y1="824.43" x2="671.43" y2="257.43"/>
	<text transform="matrix(1 0 0 1 639.0814 372.8471)" class="st3 st4 st5">9</text>
	<text transform="matrix(1 0 0 1 639.0814 716.0893)" class="st3 st4 st5">9</text>
	<line class="st2" x1="635.43" y1="824.43" x2="635.43" y2="257.43"/>
	<text transform="matrix(1 0 0 1 599.5424 352.5971)" class="st3 st4 st5">10</text>
	<text transform="matrix(1 0 0 1 599.5424 736.3315)" class="st3 st4 st5">10</text>
	<line class="st2" x1="599.43" y1="824.43" x2="599.43" y2="257.43"/>
	<text transform="matrix(1 0 0 1 563.5424 332.3471)" class="st3 st4 st5">11</text>
	<text transform="matrix(1 0 0 1 563.5424 756.5893)" class="st3 st4 st5">11</text>
	<line class="st2" x1="563.43" y1="824.43" x2="563.43" y2="257.43"/>
	<text transform="matrix(1 0 0 1 527.5424 312.0971)" class="st3 st4 st5">12</text>
	<text transform="matrix(1 0 0 1 527.5424 776.8315)" class="st3 st4 st5">12</text>
	<line class="st2" x1="527.43" y1="824.43" x2="527.43" y2="257.43"/>
	<text transform="matrix(1 0 0 1 491.5424 291.8471)" class="st3 st4 st5">13</text>
	<text transform="matrix(1 0 0 1 491.5424 797.0893)" class="st3 st4 st5">13</text>
	<line class="st2" x1="491.43" y1="824.43" x2="491.43" y2="257.43"/>
	<text transform="matrix(1 0 0 1 455.5346 271.5971)" class="st3 st4 st5">14</text>
	<text transform="matrix(1 0 0 1 455.5346 817.3393)" class="st3 st4 st5">14</text>
	<path class="st2" d="M455.43,824.43v-567 M959.43,824.43v-567 M995.43,824.43v-567 M1031.43,824.43v-567 M1067.43,824.43v-567"/>
	<text transform="matrix(1 0 0 1 1092.683 474.0971)" class="st3 st4 st5">4</text>
	<text transform="matrix(1 0 0 1 1092.683 614.8393)" class="st3 st4 st5">4</text>
	<line class="st2" x1="1103.43" y1="824.43" x2="1103.43" y2="257.43"/>
	<text transform="matrix(1 0 0 1 1128.683 453.8471)" class="st3 st4 st5">5</text>
	<text transform="matrix(1 0 0 1 1128.683 635.0815)" class="st3 st4 st5">5</text>
	<line class="st2" x1="1139.43" y1="824.43" x2="1139.43" y2="257.43"/>
	<text transform="matrix(1 0 0 1 1164.683 433.5971)" class="st3 st4 st5">6</text>
	<text transform="matrix(1 0 0 1 1164.683 655.3393)" class="st3 st4 st5">6</text>
	<line class="st2" x1="1175.43" y1="824.43" x2="1175.43" y2="257.43"/>
	<text transform="matrix(1 0 0 1 1200.683 413.3471)" class="st3 st4 st5">7</text>
	<text transform="matrix(1 0 0 1 1200.683 675.5815)" class="st3 st4 st5">7</text>
	<line class="st2" x1="1211.43" y1="824.43" x2="1211.43" y2="257.43"/>
	<text transform="matrix(1 0 0 1 1236.683 393.0971)" class="st3 st4 st5">8</text>
	<text transform="matrix(1 0 0 1 1236.683 695.8393)" class="st3 st4 st5">8</text>
	<line class="st2" x1="1247.43" y1="824.43" x2="1247.43" y2="257.43"/>
	<text transform="matrix(1 0 0 1 1272.683 372.8471)" class="st3 st4 st5">9</text>
	<text transform="matrix(1 0 0 1 1272.683 716.0893)" class="st3 st4 st5">9</text>
	<line class="st2" x1="1283.43" y1="824.43" x2="1283.43" y2="257.43"/>
	<text transform="matrix(1 0 0 1 1305.1361 352.5971)" class="st3 st4 st5">10</text>
	<text transform="matrix(1 0 0 1 1305.1361 736.3315)" class="st3 st4 st5">10</text>
	<line class="st2" x1="1319.43" y1="824.43" x2="1319.43" y2="257.43"/>
	<text transform="matrix(1 0 0 1 1341.1361 332.3471)" class="st3 st4 st5">11</text>
	<text transform="matrix(1 0 0 1 1341.1361 756.5893)" class="st3 st4 st5">11</text>
	<line class="st2" x1="1355.43" y1="824.43" x2="1355.43" y2="257.43"/>
	<text transform="matrix(1 0 0 1 1377.1439 312.0971)" class="st3 st4 st5">12</text>
	<text transform="matrix(1 0 0 1 1377.1439 776.8315)" class="st3 st4 st5">12</text>
	<line class="st2" x1="1391.43" y1="824.43" x2="1391.43" y2="257.43"/>
	<text transform="matrix(1 0 0 1 1413.1439 291.8471)" class="st3 st4 st5">13</text>
	<text transform="matrix(1 0 0 1 1413.1439 797.0893)" class="st3 st4 st5">13</text>
	<line class="st2" x1="1427.43" y1="824.43" x2="1427.43" y2="257.43"/>
	<text transform="matrix(1 0 0 1 1449.1439 271.5971)" class="st3 st4 st5">14</text>
	<text transform="matrix(1 0 0 1 1449.1439 817.3393)" class="st3 st4 st5">14</text>
	<line class="st2" x1="1463.43" y1="824.43" x2="1463.43" y2="257.43"/>
	<line class="st1" x1="455.43" y1="540.93" x2="1463.43" y2="540.93"/>
	<path class="st2" d="M455.43,540.93h1008 M455.43,520.68h1008 M455.43,500.43h1008 M455.43,480.18h1008 M455.43,459.93h1008
		 M455.43,439.68h1008 M455.43,419.43h1008 M455.43,399.18h1008 M455.43,378.93h1008 M455.43,358.68h1008 M455.43,338.43h1008
		 M455.43,318.18h1008 M455.43,297.93h1008 M455.43,277.68h1008 M455.43,257.43h1008 M455.43,540.93h1008 M455.43,561.18h1008
		 M455.43,581.43h1008 M455.43,601.68h1008 M455.43,621.93h1008 M455.43,642.18h1008 M455.43,662.43h1008 M455.43,682.68h1008
		 M455.43,702.93h1008 M455.43,723.18h1008 M455.43,743.43h1008 M455.43,763.68h1008 M455.43,783.93h1008 M455.43,804.18h1008
		 M455.43,824.43h1008"/>
</g>
</svg>
