<?xml version="1.0" encoding="utf-8"?>
<!-- Generator: Adobe Illustrator 26.5.0, SVG Export Plug-In . SVG Version: 6.00 Build 0)  -->
<svg version="1.1" id="レイヤー_1" xmlns="http://www.w3.org/2000/svg" xmlns:xlink="http://www.w3.org/1999/xlink" x="0px"
	 y="0px" viewBox="0 0 1920 1080" style="enable-background:new 0 0 1920 1080;" xml:space="preserve">
<style type="text/css">
	.st0{fill:none;stroke:#000000;stroke-width:1.4173;stroke-miterlimit:10;}
	.st1{fill:none;stroke:#000000;stroke-width:0.5669;stroke-miterlimit:10;}
	.st2{fill:none;stroke:#000000;stroke-width:0.4252;stroke-miterlimit:10;}
	.st3{fill:none;stroke:#000000;stroke-width:0.5669;stroke-miterlimit:10;stroke-dasharray:2,3;stroke-dashoffset:2;}
	.st4{fill:none;stroke:#000000;stroke-width:0.5669;stroke-miterlimit:10;stroke-dasharray:1,3;stroke-dashoffset:2;}
</style>
<g>
	<rect x="671.64" y="378.8" class="st0" width="575.43" height="323.68"/>
	<path class="st1" d="M952.15,540.64h14.4 M959.35,533.44v14.4 M725.58,540.64h7.2 M729.18,537.04v7.2 M721.98,670.11h14.4
		 M729.18,662.91v14.4 M955.75,670.11h7.2 M959.35,666.51v7.2 M1182.33,670.11h14.4 M1189.53,662.91v14.4 M1185.93,540.64h7.2
		 M1189.53,537.04v7.2 M1182.33,411.16h14.4 M1189.53,403.96v14.4 M955.75,411.16h7.2 M959.35,407.56v7.2 M721.98,411.16h14.4
		 M729.18,403.96v14.4"/>
	<path class="st2" d="M671.64,540.64h14.17 M1247.07,540.64h-14.17 M959.35,702.48V688.3 M959.35,378.8v14.17"/>
	<rect x="691.78" y="390.12" class="st3" width="535.15" height="301.02"/>
	<rect x="626.28" y="353.28" class="st4" width="666.14" height="374.7"/>
</g>
</svg>
