<?xml version="1.0" encoding="utf-8"?>
<!-- Generator: Adobe Illustrator 26.5.0, SVG Export Plug-In . SVG Version: 6.00 Build 0)  -->
<svg version="1.1" id="レイヤー_1" xmlns="http://www.w3.org/2000/svg" xmlns:xlink="http://www.w3.org/1999/xlink" x="0px"
	 y="0px" viewBox="0 0 1920 1080" style="enable-background:new 0 0 1920 1080;" xml:space="preserve">
<style type="text/css">
	.st0{fill:none;stroke:#000000;stroke-width:1.4173;stroke-miterlimit:10;}
	.st1{fill:none;stroke:#000000;stroke-width:0.5669;stroke-miterlimit:10;}
	.st2{fill:none;stroke:#000000;stroke-width:0.4252;stroke-miterlimit:10;}
	.st3{fill:none;stroke:#000000;stroke-width:0.5669;stroke-miterlimit:10;stroke-dasharray:2,3;stroke-dashoffset:2;}
	.st4{fill:none;stroke:#000000;stroke-width:0.5669;stroke-miterlimit:10;stroke-dasharray:1,3;stroke-dashoffset:2;}
</style>
<g>
	<rect x="640.64" y="301.3" class="st0" width="637.79" height="478.35"/>
	<path class="st1" d="M952.33,540.47h14.4 M959.53,533.27v14.4 M700.82,540.47h7.2 M704.42,536.87v7.2 M697.22,731.81h14.4
		 M704.42,724.61v14.4 M955.93,731.81h7.2 M959.53,728.21v7.2 M1207.45,731.81h14.4 M1214.65,724.61v14.4 M1211.05,540.47h7.2
		 M1214.65,536.87v7.2 M1207.45,349.13h14.4 M1214.65,341.93v14.4 M955.93,349.13h7.2 M959.53,345.53v7.2 M697.22,349.13h14.4
		 M704.42,341.93v14.4"/>
	<path class="st2" d="M640.64,540.47h14.17 M1278.43,540.47h-14.17 M959.53,779.64v-14.17 M959.53,301.3v14.17"/>
	<rect x="662.96" y="318.04" class="st3" width="593.15" height="444.86"/>
	<rect x="595.28" y="267.28" class="st4" width="728.5" height="546.38"/>
</g>
</svg>
