<?xml version="1.0" encoding="utf-8"?>
<!-- Generator: Adobe Illustrator 26.5.0, SVG Export Plug-In . SVG Version: 6.00 Build 0)  -->
<svg version="1.1" id="レイヤー_1" xmlns="http://www.w3.org/2000/svg" xmlns:xlink="http://www.w3.org/1999/xlink" x="0px"
	 y="0px" viewBox="0 0 1920 1080" style="enable-background:new 0 0 1920 1080;" xml:space="preserve">
<style type="text/css">
	.st0{fill:none;stroke:#000000;stroke-width:1.4173;stroke-miterlimit:10;}
	.st1{fill:none;stroke:#000000;stroke-width:0.5669;stroke-miterlimit:10;}
	.st2{fill:none;stroke:#000000;stroke-width:0.4252;stroke-miterlimit:10;}
	.st3{fill:none;stroke:#000000;stroke-width:0.5669;stroke-miterlimit:10;stroke-dasharray:2,3;stroke-dashoffset:2;}
	.st4{fill:none;stroke:#000000;stroke-width:0.5669;stroke-miterlimit:10;stroke-dasharray:1,3;stroke-dashoffset:2;}
</style>
<g>
	<rect x="640.64" y="360.8" class="st0" width="637.79" height="358.76"/>
	<path class="st1" d="M952.33,540.17h14.4 M959.53,532.97v14.4 M700.82,540.17h7.2 M704.42,536.57v7.2 M697.22,683.68h14.4
		 M704.42,676.48v14.4 M955.93,683.68h7.2 M959.53,680.08v7.2 M1207.45,683.68h14.4 M1214.65,676.48v14.4 M1211.05,540.17h7.2
		 M1214.65,536.57v7.2 M1207.45,396.67h14.4 M1214.65,389.47v14.4 M955.93,396.67h7.2 M959.53,393.07v7.2 M697.22,396.67h14.4
		 M704.42,389.47v14.4"/>
	<path class="st2" d="M640.64,540.17h14.17 M1278.43,540.17h-14.17 M959.53,719.55v-14.17 M959.53,360.8v14.17"/>
	<rect x="662.96" y="373.35" class="st3" width="593.15" height="333.65"/>
	<rect x="595.28" y="335.28" class="st4" width="728.5" height="409.78"/>
</g>
</svg>
