<?xml version="1.0" encoding="utf-8"?>
<!-- Generator: Adobe Illustrator 26.5.0, SVG Export Plug-In . SVG Version: 6.00 Build 0)  -->
<svg version="1.1" id="レイヤー_1" xmlns="http://www.w3.org/2000/svg" xmlns:xlink="http://www.w3.org/1999/xlink" x="0px"
	 y="0px" viewBox="0 0 1920 1080" style="enable-background:new 0 0 1920 1080;" xml:space="preserve">
<style type="text/css">
	.st0{fill:none;stroke:#000000;stroke-width:1.4173;stroke-miterlimit:10;}
	.st1{fill:none;stroke:#000000;stroke-width:0.5669;stroke-miterlimit:10;}
	.st2{fill:none;stroke:#000000;stroke-width:0.4252;stroke-miterlimit:10;}
	.st3{fill:none;stroke:#000000;stroke-width:0.5669;stroke-miterlimit:10;stroke-dasharray:2,3;stroke-dashoffset:2;}
	.st4{fill:none;stroke:#000000;stroke-width:0.5669;stroke-miterlimit:10;stroke-dasharray:1,3;stroke-dashoffset:2;}
</style>
<g>
	<rect x="619.63" y="349.23" class="st0" width="680.31" height="382.68"/>
	<path class="st1" d="M952.59,540.57h14.4 M959.79,533.37v14.4 M684.06,540.57h7.2 M687.66,536.97v7.2 M680.46,693.64h14.4
		 M687.66,686.44v14.4 M956.19,693.64h7.2 M959.79,690.04v7.2 M1224.71,693.64h14.4 M1231.91,686.44v14.4 M1228.31,540.57h7.2
		 M1231.91,536.97v7.2 M1224.71,387.5h14.4 M1231.91,380.3v14.4 M956.19,387.5h7.2 M959.79,383.9v7.2 M680.46,387.5h14.4
		 M687.66,380.3v14.4"/>
	<path class="st2" d="M619.63,540.57h14.17 M1299.94,540.57h-14.17 M959.79,731.9v-14.17 M959.79,349.23v14.17"/>
	<rect x="643.44" y="362.62" class="st3" width="632.69" height="355.89"/>
	<rect x="591.28" y="333.28" class="st4" width="737.01" height="414.57"/>
</g>
</svg>
