<?xml version="1.0" encoding="utf-8"?>
<!-- Generator: Adobe Illustrator 26.5.0, SVG Export Plug-In . SVG Version: 6.00 Build 0)  -->
<svg version="1.1" id="レイヤー_1" xmlns="http://www.w3.org/2000/svg" xmlns:xlink="http://www.w3.org/1999/xlink" x="0px"
	 y="0px" viewBox="0 0 1920 1080" style="enable-background:new 0 0 1920 1080;" xml:space="preserve">
<style type="text/css">
	.st0{fill:none;stroke:#000000;stroke-width:1.4173;stroke-miterlimit:10;}
	.st1{fill:none;stroke:#000000;stroke-width:0.5669;stroke-miterlimit:10;}
	.st2{fill:none;stroke:#000000;stroke-width:0.4252;stroke-miterlimit:10;}
	.st3{fill:none;stroke:#000000;stroke-width:0.5669;stroke-miterlimit:10;stroke-dasharray:2,3;stroke-dashoffset:2;}
	.st4{fill:none;stroke:#000000;stroke-width:0.5669;stroke-miterlimit:10;stroke-dasharray:1,3;stroke-dashoffset:2;}
</style>
<g>
	<rect x="619.64" y="293.27" class="st0" width="680.31" height="494.77"/>
	<path class="st1" d="M952.59,540.66h14.4 M959.79,533.46v14.4 M684.07,540.66h7.2 M687.67,537.06v7.2 M680.47,738.56h14.4
		 M687.67,731.36v14.4 M956.19,738.56h7.2 M959.79,734.96v7.2 M1224.72,738.56h14.4 M1231.92,731.36v14.4 M1228.32,540.66h7.2
		 M1231.92,537.06v7.2 M1224.72,342.75h14.4 M1231.92,335.55v14.4 M956.19,342.75h7.2 M959.79,339.15v7.2 M680.47,342.75h14.4
		 M687.67,335.55v14.4"/>
	<path class="st2" d="M619.64,540.66h14.17 M1299.95,540.66h-14.17 M959.79,788.04v-14.17 M959.79,293.27v14.17"/>
	<rect x="643.45" y="310.59" class="st3" width="632.69" height="460.14"/>
	<rect x="574.28" y="260.28" class="st4" width="771.02" height="560.74"/>
</g>
</svg>
