<?xml version="1.0" encoding="utf-8"?>
<!-- Generator: Adobe Illustrator 26.5.0, SVG Export Plug-In . SVG Version: 6.00 Build 0)  -->
<svg version="1.1" id="レイヤー_1" xmlns="http://www.w3.org/2000/svg" xmlns:xlink="http://www.w3.org/1999/xlink" x="0px"
	 y="0px" viewBox="0 0 1920 1080" style="enable-background:new 0 0 1920 1080;" xml:space="preserve">
<style type="text/css">
	.st0{fill:none;stroke:#000000;stroke-width:1.4173;stroke-miterlimit:10;}
	.st1{fill:none;stroke:#000000;stroke-width:0.5669;stroke-miterlimit:10;}
	.st2{fill:none;stroke:#000000;stroke-width:0.4252;stroke-miterlimit:10;}
	.st3{fill:none;stroke:#000000;stroke-width:0.5669;stroke-miterlimit:10;stroke-dasharray:2,3;stroke-dashoffset:2;}
	.st4{fill:none;stroke:#000000;stroke-width:0.5669;stroke-miterlimit:10;stroke-dasharray:1,3;stroke-dashoffset:2;}
</style>
<g>
	<rect x="599.64" y="345.8" class="st0" width="720" height="389.19"/>
	<path class="st1" d="M952.44,540.39h14.4 M959.64,533.19v14.4 M668.04,540.39h7.2 M671.64,536.79v7.2 M664.44,696.07h14.4
		 M671.64,688.87v14.4 M956.04,696.07h7.2 M959.64,692.47v7.2 M1240.44,696.07h14.4 M1247.64,688.87v14.4 M1244.04,540.39h7.2
		 M1247.64,536.79v7.2 M1240.44,384.72h14.4 M1247.64,377.52v14.4 M956.04,384.72h7.2 M959.64,381.12v7.2 M664.44,384.72h14.4
		 M671.64,377.52v14.4"/>
	<path class="st2" d="M599.64,540.39h14.17 M1319.64,540.39h-14.17 M959.64,734.99v-14.17 M959.64,345.8v14.17"/>
	<rect x="624.84" y="359.42" class="st3" width="669.6" height="361.95"/>
	<rect x="554.28" y="321.28" class="st4" width="810.71" height="438.22"/>
</g>
</svg>
