<?xml version="1.0" encoding="utf-8"?>
<!-- Generator: Adobe Illustrator 26.5.0, SVG Export Plug-In . SVG Version: 6.00 Build 0)  -->
<svg version="1.1" id="レイヤー_1" xmlns="http://www.w3.org/2000/svg" xmlns:xlink="http://www.w3.org/1999/xlink" x="0px"
	 y="0px" viewBox="0 0 1920 1080" style="enable-background:new 0 0 1920 1080;" xml:space="preserve">
<style type="text/css">
	.st0{fill:none;stroke:#000000;stroke-width:1.4173;stroke-miterlimit:10;}
	.st1{fill:none;stroke:#000000;stroke-width:0.5669;stroke-miterlimit:10;}
	.st2{fill:none;stroke:#000000;stroke-width:0.4252;stroke-miterlimit:10;}
	.st3{fill:none;stroke:#000000;stroke-width:0.5669;stroke-miterlimit:10;stroke-dasharray:2,3;stroke-dashoffset:2;}
	.st4{fill:none;stroke:#000000;stroke-width:0.5669;stroke-miterlimit:10;stroke-dasharray:1,3;stroke-dashoffset:2;}
</style>
<g>
	<rect x="590.64" y="332.8" class="st0" width="737.01" height="414.57"/>
	<path class="st1" d="M951.94,540.08h14.4 M959.14,532.88v14.4 M660.74,540.08h7.2 M664.34,536.48v7.2 M657.14,705.9h14.4
		 M664.34,698.7v14.4 M955.54,705.9h7.2 M959.14,702.3v7.2 M1246.74,705.9h14.4 M1253.94,698.7v14.4 M1250.34,540.08h7.2
		 M1253.94,536.48v7.2 M1246.74,374.25h14.4 M1253.94,367.05v14.4 M955.54,374.25h7.2 M959.14,370.65v7.2 M657.14,374.25h14.4
		 M664.34,367.05v14.4"/>
	<path class="st2" d="M590.64,540.08h14.17 M1327.64,540.08h-14.17 M959.14,747.36v-14.17 M959.14,332.8v14.17"/>
	<rect x="616.43" y="347.31" class="st3" width="685.42" height="385.55"/>
	<rect x="545.28" y="307.28" class="st4" width="827.71" height="465.59"/>
</g>
</svg>
