<?xml version="1.0" encoding="utf-8"?>
<!-- Generator: Adobe Illustrator 26.5.0, SVG Export Plug-In . SVG Version: 6.00 Build 0)  -->
<svg version="1.1" id="レイヤー_1" xmlns="http://www.w3.org/2000/svg" xmlns:xlink="http://www.w3.org/1999/xlink" x="0px"
	 y="0px" viewBox="0 0 1920 1080" style="enable-background:new 0 0 1920 1080;" xml:space="preserve">
<style type="text/css">
	.st0{fill:none;stroke:#000000;stroke-width:1.4173;stroke-miterlimit:10;}
	.st1{fill:none;stroke:#000000;stroke-width:0.5669;stroke-miterlimit:10;}
	.st2{fill:none;stroke:#000000;stroke-width:0.4252;stroke-miterlimit:10;}
	.st3{fill:none;stroke:#000000;stroke-width:0.5669;stroke-miterlimit:10;stroke-dasharray:2,3;stroke-dashoffset:2;}
	.st4{fill:none;stroke:#000000;stroke-width:0.5669;stroke-miterlimit:10;stroke-dasharray:1,3;stroke-dashoffset:2;}
</style>
<g>
	<rect x="587.64" y="331.8" class="st0" width="743.24" height="418.07"/>
	<path class="st1" d="M952.06,540.83h14.4 M959.26,533.63v14.4 M658.36,540.83h7.2 M661.96,537.23v7.2 M654.76,708.06h14.4
		 M661.96,700.86v14.4 M955.66,708.06h7.2 M959.26,704.46v7.2 M1249.36,708.06h14.4 M1256.56,700.86v14.4 M1252.96,540.83h7.2
		 M1256.56,537.23v7.2 M1249.36,373.6h14.4 M1256.56,366.4v14.4 M955.66,373.6h7.2 M959.26,370v7.2 M654.76,373.6h14.4
		 M661.96,366.4v14.4"/>
	<path class="st2" d="M587.64,540.83h14.17 M1330.88,540.83h-14.17 M959.26,749.87V735.7 M959.26,331.8v14.17"/>
	<rect x="613.65" y="346.43" class="st3" width="691.22" height="388.81"/>
	<rect x="542.28" y="306.28" class="st4" width="833.95" height="469.1"/>
</g>
</svg>
