<?xml version="1.0" encoding="UTF-8"?>
<svg id="_レイヤー_1" data-name="レイヤー_1" xmlns="http://www.w3.org/2000/svg" version="1.1" viewBox="0 0 1049.38 466.71">
  <!-- Generator: Adobe Illustrator 29.3.0, SVG Export Plug-In . SVG Version: 2.1.0 Build 146)  -->
  <defs>
    <style>
      .st0 {
        stroke-width: 1.42px;
      }

      .st0, .st1, .st2, .st3, .st4 {
        fill: none;
        stroke: #000;
        stroke-miterlimit: 10;
      }

      .st1 {
        stroke-dasharray: 1 3;
      }

      .st1, .st3, .st4 {
        stroke-width: .57px;
      }

      .st1, .st4 {
        stroke-dashoffset: 2px;
      }

      .st2 {
        stroke-width: .43px;
      }

      .st4 {
        stroke-dasharray: 2 3;
      }
    </style>
  </defs>
  <rect class="st0" x="28.63" y="12.88" width="992.12" height="440.94"/>
  <path class="st3" d="M517.49,233.35h14.4M524.69,226.15v14.4M124.24,233.35h7.2M127.84,229.75v7.2M120.64,409.73h14.4M127.84,402.53v14.4M521.09,409.73h7.2M524.69,406.13v7.2M521.09,56.98h7.2M524.69,53.38v7.2M120.64,56.98h14.4M127.84,49.78v14.4"/>
  <path class="st2" d="M28.63,233.35h14.17M1020.75,233.35h-14.17M524.69,453.83v-14.17M524.69,12.88v14.17"/>
  <rect class="st4" x="63.35" y="28.31" width="922.68" height="410.08"/>
  <rect class="st1" x=".28" y=".28" width="1048.82" height="466.14"/>
</svg>