<?xml version="1.0" encoding="utf-8"?>
<!-- Generator: Adobe Illustrator 26.5.0, SVG Export Plug-In . SVG Version: 6.00 Build 0)  -->
<svg version="1.1" id="レイヤー_1" xmlns="http://www.w3.org/2000/svg" xmlns:xlink="http://www.w3.org/1999/xlink" x="0px"
	 y="0px" viewBox="0 0 841.89 1190.55" style="enable-background:new 0 0 841.89 1190.55;" xml:space="preserve">
<style type="text/css">
	.st0{fill:none;stroke:#808080;stroke-width:0.8504;stroke-miterlimit:10;}
	.st1{fill:none;}
	.st2{fill:#808080;}
	.st3{font-family:'Helvetica';}
	.st4{font-size:11.3386px;}
	.st5{letter-spacing:17;}
	.st6{letter-spacing:32;}
	.st7{letter-spacing:29;}
	.st8{font-family:'KozGoPr6N-Regular-83pv-RKSJ-H';}
	.st9{letter-spacing:10;}
	.st10{letter-spacing:33;}
	.st11{letter-spacing:30;}
	.st12{letter-spacing:2;}
	.st13{letter-spacing:28;}
	.st14{letter-spacing:1;}
	.st15{letter-spacing:25;}
</style>
<g>
	<line class="st0" x1="32.65" y1="109" x2="806.51" y2="109"/>
	<line class="st0" x1="32.65" y1="143.72" x2="806.51" y2="143.72"/>
	<line class="st1" x1="15" y1="63" x2="15" y2="59"/>
	<text transform="matrix(1 0 0 1 38.5 85)" class="st2 st3 st4">sig.</text>
	<text transform="matrix(1 0 0 1 38.6362 105.1411)"><tspan x="0" y="0" class="st2 st3 st4">CT</tspan><tspan x="15.11" y="0" class="st2 st3 st4 st5">	</tspan><tspan x="36" y="0" class="st2 st3 st4 st6">	</tspan><tspan x="72" y="0" class="st2 st3 st4">LO</tspan><tspan x="87.13" y="0" class="st2 st3 st4 st5">	</tspan><tspan x="108" y="0" class="st2 st3 st4 st6">	</tspan><tspan x="144" y="0" class="st2 st3 st4">.</tspan><tspan x="147.15" y="0" class="st2 st3 st4 st7">	</tspan><tspan x="180" y="0" class="st2 st3 st4 st6">	</tspan><tspan x="216" y="0" class="st2 st3 st4">.</tspan><tspan x="219.15" y="0" class="st2 st3 st4 st7">	</tspan><tspan x="252" y="0" class="st2 st3 st4 st6">	</tspan><tspan x="288" y="0" class="st2 st8 st4">原画</tspan><tspan x="310.68" y="0" class="st2 st8 st4 st9">	</tspan><tspan x="324" y="0" class="st2 st8 st4 st10">	</tspan><tspan x="360" y="0" class="st2 st8 st4">.</tspan><tspan x="362.47" y="0" class="st2 st8 st4 st11">	</tspan><tspan x="396" y="0" class="st2 st8 st4 st10">	</tspan><tspan x="432" y="0" class="st2 st8 st4">.</tspan><tspan x="434.47" y="0" class="st2 st8 st4 st11">	</tspan><tspan x="468" y="0" class="st2 st8 st4 st10">	</tspan><tspan x="504" y="0" class="st2 st8 st4">  前検 </tspan><tspan x="534.6" y="0" class="st2 st8 st4 st12">	</tspan><tspan x="540" y="0" class="st2 st8 st4 st10">	</tspan><tspan x="576" y="0" class="st2 st8 st4">      動画</tspan><tspan x="614.53" y="0" class="st2 st8 st4 st11">	</tspan><tspan x="648" y="0" class="st2 st8 st4 st10">	</tspan><tspan x="684" y="0" class="st2 st8 st4">動検</tspan><tspan x="706.68" y="0" class="st2 st3 st4 st9">	</tspan><tspan x="720" y="0" class="st2 st3 st4 st6">	</tspan></text>
	<text transform="matrix(1 0 0 1 36.6777 139.7246)"><tspan x="0" y="0" class="st2 st3 st4">CV</tspan><tspan x="15.75" y="0" class="st2 st3 st4 st5">	</tspan><tspan x="36" y="0" class="st2 st3 st4 st6">	</tspan><tspan x="72" y="0" class="st2 st8 st4">彩色</tspan><tspan x="94.68" y="0" class="st2 st3 st4 st9">	</tspan><tspan x="108" y="0" class="st2 st3 st4 st6">	</tspan><tspan x="144" y="0" class="st2 st3 st4">.</tspan><tspan x="147.15" y="0" class="st2 st3 st4 st7">	</tspan><tspan x="180" y="0" class="st2 st3 st4 st6">	</tspan><tspan x="216" y="0" class="st2 st8 st4">検査</tspan><tspan x="238.68" y="0" class="st2 st3 st4 st9">	</tspan><tspan x="252" y="0" class="st2 st3 st4 st6">	</tspan><tspan x="288" y="0" class="st2 st8 st4"> .</tspan><tspan x="293.11" y="0" class="st2 st8 st4 st13">	</tspan><tspan x="324" y="0" class="st2 st8 st4 st10">	</tspan><tspan x="360" y="0" class="st2 st8 st4">コンポジット</tspan><tspan x="428.03" y="0" class="st2 st8 st4 st14">	</tspan><tspan x="432" y="0" class="st2 st8 st4 st10">	</tspan><tspan x="468" y="0" class="st2 st8 st4">.</tspan><tspan x="470.47" y="0" class="st2 st8 st4 st11">	</tspan><tspan x="504" y="0" class="st2 st8 st4 st10">	</tspan><tspan x="540" y="0" class="st2 st8 st4"> . </tspan><tspan x="547.76" y="0" class="st2 st8 st4 st15">	</tspan><tspan x="576" y="0" class="st2 st8 st4 st10">	</tspan><tspan x="612" y="0" class="st2 st8 st4">.</tspan><tspan x="614.47" y="0" class="st2 st3 st4 st11">	</tspan><tspan x="648" y="0" class="st2 st3 st4 st6">	</tspan><tspan x="684" y="0" class="st2 st3 st4">.</tspan><tspan x="687.15" y="0" class="st2 st3 st4 st7">	</tspan></text>
</g>
</svg>
