<?xml version="1.0" encoding="utf-8"?>
<!-- Generator: Adobe Illustrator 26.5.0, SVG Export Plug-In . SVG Version: 6.00 Build 0)  -->
<svg version="1.1" id="レイヤー_1" xmlns="http://www.w3.org/2000/svg" xmlns:xlink="http://www.w3.org/1999/xlink" x="0px"
	 y="0px" viewBox="0 0 1920 1080" style="enable-background:new 0 0 1920 1080;" xml:space="preserve">
<style type="text/css">
	.st0{fill:#333333;}
	.st1{fill:none;stroke:#000000;stroke-width:0.8504;stroke-miterlimit:10;stroke-dasharray:2,6;stroke-dashoffset:4;}
	.st2{fill:none;stroke:#000000;stroke-width:1.1339;stroke-miterlimit:10;stroke-dasharray:4,6;stroke-dashoffset:4;}
	.st3{fill:none;stroke:#808080;stroke-width:2.8346;stroke-miterlimit:10;}
	.st4{fill:none;stroke:#808080;stroke-width:113.3856;stroke-linecap:round;stroke-miterlimit:10;}
	.st5{fill:#4D4D4D;}
</style>
<g>
	<polygon class="st0" points="321.9,1018.86 1597.48,1018.86 1597.48,62.17 321.9,62.17 321.9,1258.04 3,1258.04 3,-177 
		1916.38,-177 1916.38,1258.04 321.9,1258.04 	"/>
	<path class="st1" d="M321.9,540.52h1275.59 M959.69,1018.86V62.17"/>
	<path class="st2" d="M385.68,971.03h1148.03V110.01H385.68V971.03z M449.46,923.19h1020.47V157.84H449.46V923.19z"/>
	<path class="st3" d="M931.34,540.52h56.69 M959.69,568.86v-56.69"/>
	
		<text transform="matrix(1 0 0 1 296.3864 1161.4871)" style="fill:#9FA0A0; font-family:'GothicBBB-Medium'; font-size:45.3542px;">フレーム</text>
	
		<text transform="matrix(1 0 0 1 647.8785 1161.4871)" style="fill:#9FA0A0; font-family:'GothicBBB-Medium'; font-size:45.3542px;">レタスフレーム</text>
	
		<text transform="matrix(1 0 0 1 1418.902 1161.4871)" style="fill:#9FA0A0; font-family:'GothicBBB-Medium'; font-size:45.3542px;">スケール</text>
	<text transform="matrix(1 0 0 1 279.3707 -35.0989)" style="fill:#9FA0A0; font-family:'GothicBBB-Medium'; font-size:45.3542px;">座標</text>
	
		<text transform="matrix(1 0 0 1 1413.2301 -35.0989)" style="fill:#9FA0A0; font-family:'GothicBBB-Medium'; font-size:45.3542px;">回転</text>
	<line class="st4" x1="846.31" y1="-35.1" x2="1073.08" y2="-35.1"/>
	<path class="st5" d="M859.35,1.94c3.87-0.55,8.98-4.51,12.93-10.39c-0.28-0.15-0.56-0.3-0.84-0.45
		c-8.71-4.57-19.43,0.87-19.13,4.09c0.22,2.3,1.13,2.68,2.25,4.02C856.37,0.81,857.42,2.18,859.35,1.94 M876.3-16.31
		c1.23-3.34,2-6.96,2.07-10.73c0.29-15.11-10.31-22.4-17.99-22.57c-6.21-0.14-19.69,7.69-28.72,15.29c0,0.38-0.01,0.76-0.01,1.14
		c0,20.19,5.55,33.45,6.42,35.29c0.87,1.84,1.23,2.6-0.92,4.44c-2.16,1.85-3.68,3.29-6.08,4.39s-2.39-1.1-2.76-2.76
		c-0.34-1.55-4.88-16.47-5.16-33.61C816.36-16.55,809.8-4.29,809.2-1c-0.69,3.76-1.75,2.84-3.67,1.76
		c-1.91-1.08-3.88-3.98-4.34-6.71c-0.46-2.74-1.54-3.72,2.68-6.35c2.07-2.17,3.1-3.51,5.27-6.71c2.17-3.2,4.29-6.87,8.73-13.63
		c1.76-2.69,3.8-5.57,5.73-8.2c0.07-1.36,0.15-2.71,0.23-4.05c-2.71,1.68-5.53,3.33-7.42,4.59c-3.72,2.48-5.76,3.29-7.21-0.43
		c-1.33-2.95-1.94-9.12-1.79-11.77c1.36,1.1,2.52,3.76,9.1,1.4c2.56-0.92,5.31-2.11,7.98-3.36c0.78-9.94,1.63-17.76,1.88-18.8
		c0.44-1.87-1.05-1.5-3.05-1.56c1.45-1.65,8.56-5.02,11.93-4.85c3.37,0.17,7.32,0.78,5.45,6.52c-0.87,2.65-2.87,7.09-4.77,13.08
		c1.35-0.65,2.39-1.11,3-1.27c2.69-0.72,5.22,2.78,3.25,4.85c-1.18,1.25-5.36,5.66-9.63,10.91c-0.16,1.07-0.3,2.17-0.42,3.29
		c7.5-7.48,18.55-17.21,27.6-17.35c13.01-0.21,27.02,5.57,27.23,24.58c0.09,8.35-1.73,15.28-4.38,20.91
		c0.24,0.12,0.46,0.25,0.67,0.37c3.72,2.27,9.3,5.16,9.5,8.47s0.41,7.44-0.83,10.33c-1.24,2.89-1.45,4.13-4.13,0.21
		c-2.03-2.97-5.37-6.89-10.64-10.61c-2.18,2.77-4.43,4.98-6.42,6.67c-3.85,3.28-9.3,5.84-12.97,4.65c-2.88-0.94-5.92-2.99-6.69-3.61
		c-1.8-1.47-4.87-4.02-4.85-6.81c0.01-1.38,0.76-5.6,5.15-8.42c3.75-2.41,8.43-4.4,14.33-4.59
		C868.61-17.63,872.65-17.15,876.3-16.31 M895.57-45.26c0.07-2.05,7.24-6.81,15.04-6.83c7.8-0.02,15.29,4.32,18.45,9.45
		c3.16,5.13,1.96,7.95,0.18,7.99c-1.78,0.04-4.4,0-7.86,0.12c-3.46,0.12-5.99,0.93-9.14,3.61c-0.05-1.88,2.44-5.77,4.54-7.16
		c-2.43-1.93-4.83-3.72-8.59-5.34C904.24-45.12,898.56-45.61,895.57-45.26 M895.6-13.62c1.05,3,3.55,8.8,13.39,10.27
		c9.84,1.47,16.05,0.12,18.22,2.9c2.16,2.77,4.4,6.05,5.75,7.64s-0.13,3.1-5.32,3.49s-17.39-0.79-22.8-4.05s-8.17-6.13-9.55-10.96
		C894.25-8.01,894.48-12.43,895.6-13.62 M947.26,5.01c9.52-1.14,12.93-7.72,13.7-15.19c-7.85-0.41-17.35,1.13-21.15,5.97
		c-1.25,1.6-0.46,4.11,0.79,6.2C942.37,3.78,944.88,5.28,947.26,5.01L947.26,5.01 M960.96-18.01c-0.34-4.02-1.1-7.85-1.76-10.79
		c-1.86,0.17-3.86,0.34-6.19,0.5c-8.28,0.58-13.06-0.2-14.57-1.04c-1.51-0.84-2.59-4.04-3.49-5.78c-0.54-1.06-0.85-3.64-0.87-4.49
		c0.27,0.49,2.81,1.3,6.83,2.35c3.15,0.82,10.78,1.03,16.72,0.54c-0.99-5.64-2.91-15.29-3.42-19.01c-3.76,1.29-7.42,2.79-9.28,3.72
		c-3.42,1.71-4.12,2-5.82,1.13c-1.7-0.87-5.64-5.98-6.53-7.73c-0.54-1.06-1.27-2.73-1.3-3.58c0.27,0.49,3.04,1.39,6.58,1.51
		c2.85,0.09,10.75-1.43,15.59-2.64c-0.57-5.46-0.96-8.43-0.77-9.63c0.35-2.2-0.53-2.31-2.52-2.37c1.45-1.65,7.18-5.73,10.55-5.57
		c3.37,0.17,8.65,1.23,5.73,7.47c-0.75,1.61-1.18,3.91-1.37,6.67c4.2-1.14,8.65-2.18,10.91-2.18c4.21,0,4.25,0.69,5.49,2.65
		c1.24,1.96,3.18,6.48,3.18,7.83s0.05,3.25-2.97,1.81c-2.63-1.26-11.12-2.04-16.58-1.7c0.33,6.12,1.19,13.13,2.14,19.81
		c4.71-1.29,9.59-3,11.8-4.13c3.06-1.56,4.59,0.2,6.59,1.73c2,1.54,3.48,2.24,5.77,3.58c2.29,1.34-0.31,3.58-4.01,4.62
		c-3.7,1.03-4.58,1.67-13.3,2.46c-1.94,0.18-3.64,0.34-5.22,0.5c0.78,3.67,1.66,8.12,2.06,12.69c2.66,0.41,5.28,0.96,7.65,1.65
		c7.06,2.06,13.6,5.15,14.15,8.29c0.55,3.14,0.31,7-1.18,11.16c-1.49,4.16-3.39,3.89-6.03-0.03c-2.55-3.78-8.03-9.15-14.56-12.11
		c-0.68,6.43-3.15,12.2-9.16,15.33c-4.48,2.33-13.22,3.93-16.88,2.72c-3.13-1.03-6.11-2.94-8.5-5.18
		c-5.87-5.51-5.43-8.56-3.98-12.16c0.72-1.8,2.34-3.63,6.74-6.45c3.74-2.41,11.2-3.82,17.09-4.12
		C957.66-18.05,959.25-18.06,960.96-18.01 M998.76-76.47c0,0,0.12-2.81,2.84-3.39c2.73-0.58,8.81,0.55,10.09,3.04
		c1.29,2.49,1.13,4.7,0.74,10.15c-0.03,0.48-0.08,0.99-0.13,1.53c2.4-0.59,4.64-1.02,5.97-1.02c2.18,0.01,4.48,1.13,5.49,2.31
		c1.01,1.18,2.7,1.38,2.83,3.55c0.13,2.17-0.18,3.15-2.88,3.37c-2.7,0.22-6.75,0.67-12.03,1.49c-0.18,0.03-0.37,0.06-0.55,0.09
		c-0.54,3.86-1.17,7.82-1.76,11.03c-1.25,6.77-4.29,14.94-6.41,17.87c1.21-0.92,2.16-1.81,3.86-3.42c1.7-1.61,2.31-1.58,0.4,0.93
		c-1.9,2.52-5.3,8.83-6.64,11.59c-1.34,2.76-2.91,2.35-5.48,1.49c-2.57-0.86-4.97-1.72-6.18-2.66c-1.21-0.94-3.87-1.86-0.15-4.91
		c3.72-3.04,12.1-17.1,13.19-25.61c0.17-1.31,0.28-2.8,0.36-4.39c-1.66,0.43-3.12,0.85-4.26,1.16c-3.04,0.84-6.07,2.27-6.63,1.73
		c-0.56-0.54-2.32-1.58-2.92-3.49c-0.47-1.47-1.11-3.7-0.95-6.8c0.97,1.71,2.78,2.42,5.8,1.92c1.91-0.32,5.62-1.76,9.05-3.06
		c-0.14-6.56-0.66-12.63-1.05-13.62C1000.93-76.95,998.76-76.47,998.76-76.47 M1012.31-27.07c2.16,1.89,5.43,5.36,14.13,5.22
		c8.7-0.14,12.19-3.11,13.99-1.71c1.8,1.4,5.18,4.69,6.13,6.2c0.95,1.51-2.23,4.37-6.13,5.09c-3.9,0.72-12.08,0.03-16.59-1.42
		c-4.52-1.45-8.89-5.81-9.85-7.46C1013.33-22.28,1011.97-24.62,1012.31-27.07 M1015.85-40.56c-0.48-1.27,4.49-6.9,11.28-9.9
		c6.79-3,12.86-2.93,16.98-1.03c4.11,1.9,4.08,2.5,3.79,4.63c-0.29,2.14-4.26,3.29-7.24,4.44c-2.97,1.16-4.35,2.15-7.38,3.87
		c0.38-1.23,2.43-2.99,2.82-3.42c-2.26-1.32-4.95-1.56-8.77-1.21C1023.46-42.81,1018.36-41.92,1015.85-40.56 M1038.68-36.54
		c0,0,1.02,2.04,4.3-0.32c1.83-1.31,8.21-5.23,14.71-8.91c-2.3-12.39-3.8-23.18-3.82-24.45c-0.04-1.92-1.39-1.19-3.34-0.75
		c0.99-1.96,7.03-7,10.34-7.67c3.31-0.68,7.29-1.07,6.9,4.96c-0.26,4.04-1.9,12.32-1.43,23.23c1.88-0.95,3.54-1.73,4.82-2.23
		c4-1.57,10.8-4.42,18.45-5.78c0.48-2.24,0.51-4.26,0.77-8.13c0.3-4.46,0.25-6.3,0.07-8.34c0.07-2.06-2.98-2.44-2.98-2.44
		c1.06-1.9,6-4.08,8.79-3.57c2.79,0.52,6.15,1.42,6.25,5.09c0.08,2.96-2.96,11.42-7.14,16.71c3.79-0.22,7.67,0.06,11.42,1.14
		c7.02,2.02,12.73,6.89,13.15,13.31c0.38,5.73-0.3,9.51-3.53,15.64c-1.07,2.03-5.07,6.58-5.07,6.58s-1.93,0.53-4.04,0.7
		c-2.11,0.18-8.6-0.65-11.94-1.23c-3.33-0.58-0.18-1.4,2.46-2.46s16.14-9.17,16.14-18.41c0-9.24-15.14-8.19-26.09-3.89
		c-5.76,2.26-13.69,6.31-20.11,9.81c0.33,1.73,0.72,3.5,1.18,5.3c5.03,19.55,15.62,30.24,16.93,31.81c1.3,1.57,1.46,2.97-0.17,5.3
		c-1.63,2.32-3.89,4.3-6.13,5.77c-2.23,1.48-2.78-0.47-3.55-1.99c-0.77-1.51-9.79-16.63-14.26-34.74c-0.57-2.31-1.12-4.72-1.66-7.16
		c-1.82,1.06-3.03,1.81-3.34,2.06c-1.35,1.08-6.11,5.01-6.88,6.51c-0.77,1.5-3.7,0.45-5.79-1.27c-2.09-1.73-4.01-3.97-4.81-5.61
		C1038.54-33.69,1038.68-36.54,1038.68-36.54"/>
</g>
</svg>
