<?xml version="1.0" encoding="utf-8"?>
<!-- Generator: Adobe Illustrator 26.5.0, SVG Export Plug-In . SVG Version: 6.00 Build 0)  -->
<svg version="1.1" id="レイヤー_1" xmlns="http://www.w3.org/2000/svg" xmlns:xlink="http://www.w3.org/1999/xlink" x="0px"
	 y="0px" viewBox="0 0 1920 1080" style="enable-background:new 0 0 1920 1080;" xml:space="preserve">
<style type="text/css">
	.st0{fill:none;stroke:#000000;stroke-width:0.5669;stroke-miterlimit:10;}
	.st1{fill:#4D4D4D;}
</style>
<g>
	<path class="st0" d="M942.02,540h36 M960.02,522v36 M818.28,504v72 M1101.75,576v-72"/>
	<path class="st1" d="M855.08,540.04c0-4.69-3.81-8.5-8.5-8.5s-8.5,3.81-8.5,8.5c0,4.69,3.81,8.5,8.5,8.5
		S855.08,544.73,855.08,540.04L855.08,540.04z"/>
	<path class="st1" d="M1081.88,540.04c0-4.69-3.81-8.5-8.5-8.5c-4.69,0-8.5,3.81-8.5,8.5c0,4.69,3.81,8.5,8.5,8.5
		C1078.07,548.54,1081.88,544.73,1081.88,540.04L1081.88,540.04z"/>
</g>
</svg>
