<?xml version="1.0" encoding="utf-8"?>
<!-- Generator: Adobe Illustrator 26.5.0, SVG Export Plug-In . SVG Version: 6.00 Build 0)  -->
<svg version="1.1" id="レイヤー_1" xmlns="http://www.w3.org/2000/svg" xmlns:xlink="http://www.w3.org/1999/xlink" x="0px"
	 y="0px" viewBox="0 0 1920 1080" style="enable-background:new 0 0 1920 1080;" xml:space="preserve">
<style type="text/css">
	.st0{fill:none;stroke:#4D4D4D;stroke-width:0.5669;stroke-miterlimit:10;}
	.st1{fill:#4D4D4D;}
	.st2{fill:none;stroke:#000000;stroke-width:0.5669;stroke-miterlimit:10;}
</style>
<g>
	<rect x="599.28" y="517.5" class="st0" width="720" height="45"/>
	<path class="st1" d="M968.28,540c0-4.97-4.03-9-9-9c-4.97,0-9,4.03-9,9s4.03,9,9,9C964.25,549,968.28,544.97,968.28,540L968.28,540
		z"/>
	<path class="st2" d="M621.96,504v72 M1296.61,576v-72"/>
	<path class="st1" d="M651.03,535.5h38.25c2.49,0,4.5,2.01,4.5,4.5s-2.01,4.5-4.5,4.5h-36c-2.49,0-4.5-2.01-4.5-4.5
		s2.01-4.5,4.5-4.5H651.03z"/>
	<path class="st1" d="M1227.03,535.5h38.25c2.49,0,4.5,2.01,4.5,4.5s-2.01,4.5-4.5,4.5h-36c-2.49,0-4.5-2.01-4.5-4.5
		s2.01-4.5,4.5-4.5H1227.03z"/>
</g>
</svg>
